<svg width="14" height="14" viewBox="0 0 14 14" fill="none" xmlns="http://www.w3.org/2000/svg">
<path d="M2 9.625V0.625L12 5.125L2 9.625Z" fill="#FF7972"/>
<path fill-rule="evenodd" clip-rule="evenodd" d="M2.875 9.91662V13.125C2.875 13.6082 2.48325 14 2 14C1.51675 14 1.125 13.6082 1.125 13.125V0.875C1.125 0.392551 1.51545 0.00129801 1.9976 3.10028e-06L2 0L2.00274 4.12712e-06C2.20006 0.000607956 2.38202 0.0665303 2.52811 0.177285L12.2565 4.55505C12.4808 4.65598 12.625 4.87906 12.625 5.125C12.625 5.37094 12.4808 5.59402 12.2565 5.69495L2.875 9.91662ZM2.875 8.54588L10.477 5.125L2.875 1.70412V8.54588Z" fill="#D82620"/>
</svg>
