<svg width="24" height="24" viewBox="0 0 24 24" fill="none" xmlns="http://www.w3.org/2000/svg">
<path d="M9.2 14.78L9.6942 14.2158L9.69087 14.213L9.2 14.78ZM11.78 17.04L12.2868 16.4871C12.2826 16.4833 12.2784 16.4796 12.2742 16.4758L11.78 17.04ZM12.21 17.04L11.7158 16.4758C11.7116 16.4796 11.7074 16.4833 11.7032 16.4871L12.21 17.04ZM14.79 14.78L15.2842 15.3442L15.2857 15.3429L14.79 14.78ZM12.7 12.2L12.246 11.603L12.2419 11.6062L12.7 12.2ZM12 12.74L11.5514 13.341C11.821 13.5423 12.1917 13.5394 12.4581 13.3338L12 12.74ZM11.29 12.21L10.84 12.81L10.8414 12.811L11.29 12.21ZM9 12.5L9.58236 12.9726L9.58565 12.9685L9 12.5ZM10.9 3.2L10.3 3.65L10.3 3.65L10.9 3.2ZM12.4 5.2L11.8 5.65001L11.8029 5.65381L12.4 5.2ZM8.70581 15.3442L11.2858 17.6042L12.2742 16.4758L9.69419 14.2158L8.70581 15.3442ZM11.2732 17.5929C11.6799 17.9657 12.3101 17.9657 12.7168 17.5929L11.7032 16.4871C11.8699 16.3343 12.1201 16.3343 12.2868 16.4871L11.2732 17.5929ZM12.7042 17.6042L15.2842 15.3442L14.2958 14.2158L11.7158 16.4758L12.7042 17.6042ZM15.2857 15.3429C16.2553 14.489 16.3866 13.0351 15.5757 12.0215L14.4043 12.9585C14.7134 13.3449 14.6647 13.891 14.2943 14.2171L15.2857 15.3429ZM15.5757 12.0215C14.7643 11.0072 13.2836 10.8138 12.246 11.603L13.154 12.797C13.5364 12.5062 14.0957 12.5728 14.4043 12.9585L15.5757 12.0215ZM12.2419 11.6062L11.5419 12.1462L12.4581 13.3338L13.1581 12.7938L12.2419 11.6062ZM12.4486 12.139L11.7386 11.609L10.8414 12.811L11.5514 13.341L12.4486 12.139ZM11.74 11.61C10.6956 10.8267 9.22713 11.0155 8.41435 12.0315L9.58565 12.9685C9.89287 12.5845 10.4444 12.5133 10.84 12.81L11.74 11.61ZM8.41766 12.0274C7.60233 13.032 7.73314 14.5022 8.70912 15.347L9.69087 14.213C9.32686 13.8978 9.27767 13.348 9.58234 12.9726L8.41766 12.0274ZM21.25 11V17H22.75V11H21.25ZM21.25 17C21.25 19.0054 20.9812 19.9582 20.4697 20.4697C19.9582 20.9812 19.0054 21.25 17 21.25V22.75C18.9946 22.75 20.5418 22.5188 21.5303 21.5303C22.5188 20.5418 22.75 18.9946 22.75 17H21.25ZM17 21.25H7V22.75H17V21.25ZM7 21.25C4.99464 21.25 4.04182 20.9812 3.53033 20.4697C3.01884 19.9582 2.75 19.0054 2.75 17H1.25C1.25 18.9946 1.48116 20.5418 2.46967 21.5303C3.45818 22.5188 5.00536 22.75 7 22.75V21.25ZM2.75 17V7H1.25V17H2.75ZM2.75 7C2.75 4.99464 3.01884 4.04182 3.53033 3.53033C4.04182 3.01884 4.99464 2.75 7 2.75V1.25C5.00536 1.25 3.45818 1.48116 2.46967 2.46967C1.48116 3.45818 1.25 5.00536 1.25 7H2.75ZM7 2.75H8.5V1.25H7V2.75ZM8.5 2.75C9.18507 2.75 9.48669 2.85228 9.66253 2.95791C9.85612 3.07421 9.9971 3.24613 10.3 3.65L11.5 2.75C11.2329 2.39387 10.9239 1.96579 10.435 1.67209C9.92831 1.36772 9.31493 1.25 8.5 1.25V2.75ZM10.3 3.65L11.8 5.65L13 4.75L11.5 2.75L10.3 3.65ZM11.8029 5.65381C11.9729 5.8775 12.2071 6.20425 12.5796 6.42937C12.9717 6.66638 13.4323 6.75 14 6.75V5.25C13.5677 5.25 13.4183 5.18362 13.3554 5.14563C13.2729 5.09575 13.2071 5.0225 12.9971 4.74619L11.8029 5.65381ZM14 6.75H17V5.25H14V6.75ZM17 6.75C19.0054 6.75 19.9582 7.01884 20.4697 7.53033C20.9812 8.04182 21.25 8.99464 21.25 11H22.75C22.75 9.00536 22.5188 7.45818 21.5303 6.46967C20.5418 5.48116 18.9946 5.25 17 5.25V6.75Z" fill="white"/>
</svg>
