<svg width="24" height="24" viewBox="0 0 24 24" fill="none" xmlns="http://www.w3.org/2000/svg">
<path d="M2.06999 4.6L2.80067 4.76917L2.80072 4.76895L2.06999 4.6ZM8.86999 4.6L8.13881 4.76694L8.13932 4.76917L8.86999 4.6ZM6.92999 9.42L7.44691 9.96342L7.44808 9.96229L6.92999 9.42ZM3.99999 9.42L3.47944 9.96001L3.4866 9.96673L3.99999 9.42ZM15.07 16.6L15.8007 16.7692L15.8007 16.769L15.07 16.6ZM21.91 16.6L21.1793 16.769L21.1793 16.7692L21.91 16.6ZM19.96 21.42L19.4443 20.8754L19.4431 20.8766L19.96 21.42ZM17.02 21.42L16.5043 21.9646L16.5066 21.9667L17.02 21.42ZM12 4.25C11.5858 4.25 11.25 4.58578 11.25 5C11.25 5.41421 11.5858 5.75 12 5.75V4.25ZM16 8.51L16.4938 9.07447L16.4947 9.07368L16 8.51ZM8.00999 15.5L8.50243 16.0657L8.50382 16.0645L8.00999 15.5ZM12 19.75C12.4142 19.75 12.75 19.4142 12.75 19C12.75 18.5858 12.4142 18.25 12 18.25V19.75ZM5.48621 4.75C5.072 4.75 4.73621 5.08578 4.73621 5.5C4.73621 5.91421 5.072 6.25 5.48621 6.25V4.75ZM5.49777 6.25C5.91198 6.25 6.24777 5.91421 6.24777 5.5C6.24777 5.08578 5.91198 4.75 5.49777 4.75V6.25ZM18.4862 16.75C18.072 16.75 17.7362 17.0858 17.7362 17.5C17.7362 17.9142 18.072 18.25 18.4862 18.25V16.75ZM18.4978 18.25C18.912 18.25 19.2478 17.9142 19.2478 17.5C19.2478 17.0858 18.912 16.75 18.4978 16.75V18.25ZM2.80072 4.76895C3.10611 3.44812 4.24545 2.755 5.47374 2.755C6.70191 2.755 7.83759 3.44768 8.13881 4.76694L9.60118 4.43305C9.1124 2.29231 7.24808 1.255 5.47374 1.255C3.69954 1.255 1.83388 2.29187 1.33927 4.43104L2.80072 4.76895ZM8.13932 4.76917C8.51251 6.38103 7.50051 7.8377 6.41191 8.8777L7.44808 9.96229C8.59948 8.8623 10.1675 6.87896 9.60067 4.43083L8.13932 4.76917ZM6.41308 8.87658C5.88686 9.37714 5.04904 9.37625 4.51339 8.87326L3.4866 9.96673C4.59095 11.0037 6.33313 11.0229 7.44691 9.96342L6.41308 8.87658ZM4.52051 8.88003C3.43993 7.83839 2.42731 6.38177 2.80067 4.76917L1.33932 4.43083C0.772683 6.87823 2.34006 8.8616 3.47948 9.95997L4.52051 8.88003ZM15.8007 16.769C16.1055 15.4507 17.2498 14.755 18.49 14.755C19.7302 14.755 20.8745 15.4507 21.1793 16.769L22.6407 16.431C22.1455 14.2893 20.2698 13.255 18.49 13.255C16.7101 13.255 14.8345 14.2893 14.3393 16.431L15.8007 16.769ZM21.1793 16.7692C21.5523 18.3803 20.541 19.837 19.4443 20.8754L20.4757 21.9646C21.639 20.863 23.2076 18.8797 22.6407 16.4308L21.1793 16.7692ZM19.4431 20.8766C18.9168 21.3771 18.069 21.3762 17.5334 20.8733L16.5066 21.9667C17.611 23.0038 19.3631 23.0228 20.4769 21.9634L19.4431 20.8766ZM17.5357 20.8754C16.439 19.837 15.4276 18.3803 15.8007 16.7692L14.3393 16.4308C13.7723 18.8797 15.341 20.863 16.5043 21.9646L17.5357 20.8754ZM12 5.75H14.68V4.25H12V5.75ZM14.68 5.75C15.8362 5.75 16.3766 7.18155 15.5053 7.94632L16.4947 9.07368C18.4034 7.39844 17.2238 4.25 14.68 4.25V5.75ZM15.5062 7.94552L7.51617 14.9355L8.50382 16.0645L16.4938 9.07447L15.5062 7.94552ZM7.51756 14.9343C5.60356 16.6005 6.78779 19.75 9.31999 19.75V18.25C8.1722 18.25 7.63643 16.8195 8.50243 16.0657L7.51756 14.9343ZM9.31999 19.75H12V18.25H9.31999V19.75ZM5.48621 6.25H5.49777V4.75H5.48621V6.25ZM18.4862 18.25H18.4978V16.75H18.4862V18.25Z" fill="white"/>
</svg>
